<svg xmlns="http://www.w3.org/2000/svg" viewBox="0 0 300 300" fill="none">
  <path fill-rule="evenodd" clip-rule="evenodd" d="m85.049 79.342-7.614 22.67-26.007-26.137a10 10 0 0 0-7.089-2.946h-33a10.002 10.002 0 0 0-9.136 14.068l65.468 147.057v47.376c0 5.522 4.478 10 10 10h165.001c5.522 0 10-4.478 10-10v-56h10.917c14.612 0 26.5-13.01 26.5-29v-94c0-15.99-13.01-29-29-29h-25.796V55.95c0-14.337-11.663-26-26-26h-18.295C190.517 13.354 176.878 0 160.171 0s-30.346 13.354-30.827 29.95h-18.295c-14.337 0-26 11.663-26 26v23.392zM160.171 20c5.678 0 10.343 4.388 10.805 9.95h-21.609c.462-5.562 5.127-9.95 10.804-9.95zm-49.122 29.95h98.244c3.252 0 6 2.748 6 6v17.479H105.049V55.95c0-3.252 2.748-6 6-6zM26.738 92.929h13.444l30.173 30.324-2.171 6.515a9.996 9.996 0 0 0-.513 3.162v51.945L26.738 92.929zm60.933 41.624 13.707-41.124h117.585l13.709 41.124v136.876H87.671V134.553zm182.418 61.876c0 4.794-3.037 9-6.5 9h-10.917V132.93a9.964 9.964 0 0 0-.514-3.162l-12.113-36.339h21.044c4.963 0 9 4.037 9 9v94z" fill="currentColor"/>
</svg>
